<?xml version="1.0" standalone="no"?>
<!DOCTYPE svg PUBLIC "-//W3C//DTD SVG 20010904//EN"
 "http://www.w3.org/TR/2001/REC-SVG-20010904/DTD/svg10.dtd">
<svg version="1.0" xmlns="http://www.w3.org/2000/svg"
 width="260.000000pt" height="260.000000pt" viewBox="0 0 260.000000 260.000000"
 preserveAspectRatio="xMidYMid meet">
<metadata>
Created by potrace 1.14, written by Peter Selinger 2001-2017
</metadata>
<g transform="translate(0.000000,260.000000) scale(0.100000,-0.100000)"
fill="#000000" stroke="none">
<path d="M1085 2101 c-107 -28 -222 -143 -194 -194 16 -27 40 -20 127 37 91
61 132 71 212 56 159 -30 338 -178 423 -350 29 -59 32 -73 32 -160 0 -89 -2
-100 -28 -139 -67 -101 -211 -149 -495 -165 -66 -3 -84 -1 -89 10 -3 8 32 155
77 327 99 376 103 427 35 427 -39 0 -49 -19 -77 -137 -15 -65 -90 -368 -167
-673 -77 -305 -140 -565 -141 -578 0 -33 18 -62 39 -62 47 0 58 27 134 320
l74 285 159 6 c226 9 361 41 459 109 113 77 155 184 135 334 -28 199 -180 371
-451 509 -74 37 -93 42 -159 44 -41 1 -88 -2 -105 -6z"/>
</g>
</svg>
